P2
# CREATOR: XV Version 3.10a  Rev: 12/29/94
# CREATOR: The GIMP's PNM Filter Version 1.0
22 47
255
  0   0   0   0   0   0   0   0   0   0   0   0   0   0   0   0   0 
  0   0   0   0   0   0   0   0   0   0   0   0   0   0   0   0   0 
  0   0   0   0   0   0   0   0   0   0   0   0   0   0   0   0   0 
  0   0   0   0   0   0   0   0   0   0   0   0   0   0   0   0   0 
  0   0   0   0   0   0   0   0   0   0   0   0   0   0   0   0   0 
  0   0   0   0   0   0   0   0   0   0   0   0   0   0   0   0   0 
  0   0   0   0   0   0   0   0   0   0   0   0   0   0   0   0   0 
  0   0   0   0   0   0   0   0   0   0   0   0   0   0   0   0   0 
  0   0   0   0   0   0   0   0   0   0   0   0   0   0   0   0   0 
  0   0   0   0   0   0   0   0   0   0   0   0   0   0   0   0   0 
  0   0   0   0   0   0   0   0   0   0   0   0   0   0   0   0   0 
  0   0   0   0   0   0   0   0   0   0   0   0   0   0   0   0   0 
  0   0   0   0   0   0   0   0   0   0   0   0   0   0   0   0   0 
  0   0   0   0   0   0   0   0   0   0   0   0   0   0   0   0   0 
  0   0   0   0   0   0   0   0   0   0   0   0   0  85 141 170 170 
170  85   0   0   0   0   0   0   0   0   0   0   0   0   0   0 113 
226 255 255 255 255 255 255 255 141   0   0   0   0   0   0   0   0 
  0   0  28 198 255 255 255 255 255 255 255 255 255 255 226  28   0 
  0   0   0   0   0   0   0 198 255 255 255 255 255 255 255 255 255 
255 255 255 226   0   0   0   0   0   0   0 141 255 255 255 255 255 
255 170 170 226 255 255 255 255 255 141   0   0   0   0   0   0 255 
255 255 255 255 170  28   0   0   0 113 255 255 255 255 255  28   0 
  0   0   0  85 255 255 255 255 226   0   0   0   0   0   0 141 255 
255 255 255  85   0   0   0   0 141 255 255 255 255 113   0   0   0 
  0   0   0  56 255 255 255 255 170   0   0   0   0 170 255 255 255 
255  28   0   0   0   0   0   0   0 255 255 255 255 170   0   0   0 
  0 113 170 170 170 170   0   0   0   0   0   0   0   0 255 255 255 
255 170   0   0   0   0   0   0   0   0   0   0   0   0   0   0   0 
  0 113 255 255 255 255 113   0   0   0   0   0   0   0   0   0   0 
  0   0   0   0   0   0 226 255 255 255 255  56   0   0   0   0   0 
  0   0   0   0   0   0   0   0   0   0 170 255 255 255 255 198   0 
  0   0   0   0   0   0   0   0   0   0   0   0   0   0 170 255 255 
255 255 255  56   0   0   0   0   0   0   0   0   0   0   0   0   0 
  0 170 255 255 255 255 255 141   0   0   0   0   0   0   0   0   0 
  0   0   0   0   0 170 255 255 255 255 255 170   0   0   0   0   0 
  0   0   0   0   0   0   0   0  28 226 255 255 255 255 255 170   0 
  0   0   0   0   0   0   0   0   0   0   0   0  28 226 255 255 255 
255 255 170   0   0   0   0   0   0   0   0   0   0   0   0   0  28 
226 255 255 255 255 255 113   0   0   0   0   0   0   0   0   0   0 
  0   0   0  28 226 255 255 255 255 255  85   0   0   0   0   0   0 
  0   0   0   0   0   0   0  85 255 255 255 255 255 255  85   0   0 
  0   0   0   0   0   0   0   0   0   0   0  85 255 255 255 255 255 
226  56   0   0   0   0   0   0   0   0   0   0   0   0   0  85 255 
255 255 255 255 255 198 170 170 170 170 170 170 170 170 170 113   0 
  0   0   0 170 255 255 255 255 255 255 255 255 255 255 255 255 255 
255 255 255 170   0   0   0   0 170 255 255 255 255 255 255 255 255 
255 255 255 255 255 255 255 255 170   0   0   0   0 170 255 255 255 
255 255 255 255 255 255 255 255 255 255 255 255 255 170   0   0   0 
  0 170 255 255 255 255 255 255 255 255 255 255 255 255 255 255 255 
255 170   0   0   0   0   0   0   0   0   0   0   0   0   0   0   0 
  0   0   0   0   0   0   0   0   0   0   0   0   0   0   0   0   0 
  0   0   0   0   0   0   0   0   0   0   0   0   0   0   0   0   0 
  0   0   0   0   0   0   0   0   0   0   0   0   0   0   0   0   0 
  0   0   0   0   0   0   0   0   0   0   0   0   0   0   0   0   0 
  0   0   0   0   0   0   0   0   0   0   0   0   0   0   0   0   0 
  0   0   0   0   0   0   0   0   0   0   0   0   0   0   0   0   0 
  0   0   0   0   0   0   0   0   0   0   0   0   0   0   0   0   0 
  0   0   0   0   0   0   0   0   0   0   0   0   0   0   0   0   0 
  0   0   0   0   0   0   0   0   0   0   0   0   0   0   0   0   0 
  0   0   0   0   0   0   0   0   0   0   0   0   0   0   0   0   0 
  0   0   0   0   0   0   0   0   0   0   0   0   0   0 