P3
# CREATOR: The GIMP's PNM Filter Version 1.0
22 47
255
0
0
0
0
0
0
0
0
0
0
0
0
0
0
0
0
0
0
0
0
0
0
0
0
0
0
0
0
0
0
0
0
0
0
0
0
0
0
0
0
0
0
0
0
0
0
0
0
0
0
0
0
0
0
0
0
0
0
0
0
0
0
0
0
0
0
0
0
0
0
0
0
0
0
0
0
0
0
0
0
0
0
0
0
0
0
0
0
0
0
0
0
0
0
0
0
0
0
0
0
0
0
0
0
0
0
0
0
0
0
0
0
0
0
0
0
0
0
0
0
0
0
0
0
0
0
0
0
0
0
0
0
0
0
0
0
0
0
0
0
0
0
0
0
0
0
0
0
0
0
0
0
0
0
0
0
0
0
0
0
0
0
0
0
0
0
0
0
0
0
0
0
0
0
0
0
0
0
0
0
0
0
0
0
0
0
0
0
0
0
0
0
0
0
0
0
0
0
0
0
0
0
0
0
0
0
0
0
0
0
0
0
0
0
0
0
0
0
0
0
0
0
0
0
0
0
0
0
0
0
0
0
0
0
0
0
0
0
0
0
0
0
0
0
0
0
0
0
0
0
0
0
0
0
0
0
0
0
0
0
0
0
0
0
0
0
0
0
0
0
0
0
0
0
0
0
0
0
0
0
0
0
0
0
0
0
0
0
0
0
0
0
0
0
0
0
0
0
0
0
0
0
0
0
0
0
0
0
0
0
0
0
0
0
0
0
0
0
0
0
0
0
0
0
0
0
0
0
0
0
0
0
0
0
0
0
0
0
0
0
0
0
0
0
0
0
0
0
0
0
0
0
0
0
0
0
0
0
0
0
0
0
0
0
0
0
0
0
0
0
0
0
0
0
0
0
0
0
0
0
0
0
0
0
0
0
0
0
0
0
0
0
0
0
0
0
0
0
0
0
0
0
0
0
0
0
0
0
0
0
0
0
0
0
0
0
0
0
0
0
0
0
0
0
0
0
0
0
0
0
0
0
0
0
0
0
0
0
0
0
0
0
0
0
0
0
0
0
0
0
0
0
0
0
0
0
0
0
0
0
0
0
0
0
0
0
0
0
0
0
0
0
0
0
0
0
0
0
0
0
0
0
0
0
0
0
0
0
0
0
0
0
0
0
0
0
0
0
0
0
0
0
0
0
0
0
0
0
0
0
0
0
0
0
0
0
0
0
0
0
0
0
0
0
0
0
0
0
0
0
0
0
0
0
0
0
0
0
0
0
0
0
0
0
0
0
0
0
0
0
0
0
0
0
0
0
0
0
0
0
0
0
0
0
0
0
0
0
0
0
0
0
0
0
0
0
0
0
0
0
0
0
0
0
0
0
0
0
0
0
0
0
0
0
0
0
0
0
0
0
0
0
0
0
0
0
0
0
0
0
0
0
0
0
0
0
0
0
0
0
0
0
0
0
0
0
0
0
0
0
0
0
0
0
0
0
0
0
0
0
0
0
0
0
0
0
0
0
0
0
0
0
0
0
0
0
0
0
0
0
0
0
0
0
0
0
0
0
0
0
0
0
0
0
0
0
0
0
0
0
0
0
0
0
0
0
0
0
0
0
0
0
0
0
0
0
0
0
0
0
0
0
0
0
0
0
0
0
0
0
0
0
0
0
0
0
0
0
0
0
0
0
0
0
0
0
0
0
0
0
0
0
0
0
0
0
0
0
0
0
0
0
0
0
0
0
0
0
0
0
0
0
0
85
85
85
141
141
141
170
170
170
170
170
170
170
170
170
85
85
85
0
0
0
0
0
0
0
0
0
0
0
0
0
0
0
0
0
0
0
0
0
0
0
0
0
0
0
0
0
0
0
0
0
0
0
0
0
0
0
0
0
0
113
113
113
226
226
226
23
255
15
23
255
15
23
255
15
23
255
15
23
255
15
23
255
15
23
255
15
141
141
141
0
0
0
0
0
0
0
0
0
0
0
0
0
0
0
0
0
0
0
0
0
0
0
0
0
0
0
0
0
0
28
28
28
198
198
198
23
255
15
23
255
15
23
255
15
23
255
15
23
255
15
23
255
15
23
255
15
23
255
15
23
255
15
23
255
15
226
226
226
28
28
28
0
0
0
0
0
0
0
0
0
0
0
0
0
0
0
0
0
0
0
0
0
0
0
0
198
198
198
23
255
15
23
255
15
23
255
15
23
255
15
23
255
15
23
255
15
23
255
15
23
255
15
23
255
15
23
255
15
23
255
15
23
255
15
226
226
226
0
0
0
0
0
0
0
0
0
0
0
0
0
0
0
0
0
0
0
0
0
141
141
141
23
255
15
23
255
15
23
255
15
23
255
15
23
255
15
23
255
15
170
170
170
170
170
170
226
226
226
23
255
15
23
255
15
23
255
15
23
255
15
23
255
15
141
141
141
0
0
0
0
0
0
0
0
0
0
0
0
0
0
0
0
0
0
23
255
15
23
255
15
23
255
15
23
255
15
23
255
15
170
170
170
28
28
28
0
0
0
0
0
0
0
0
0
113
113
113
23
255
15
23
255
15
23
255
15
23
255
15
23
255
15
28
28
28
0
0
0
0
0
0
0
0
0
0
0
0
85
85
85
23
255
15
23
255
15
23
255
15
23
255
15
226
226
226
0
0
0
0
0
0
0
0
0
0
0
0
0
0
0
0
0
0
141
141
141
23
255
15
23
255
15
23
255
15
23
255
15
85
85
85
0
0
0
0
0
0
0
0
0
0
0
0
141
141
141
23
255
15
23
255
15
23
255
15
23
255
15
113
113
113
0
0
0
0
0
0
0
0
0
0
0
0
0
0
0
0
0
0
56
56
56
23
255
15
23
255
15
23
255
15
23
255
15
170
170
170
0
0
0
0
0
0
0
0
0
0
0
0
170
170
170
23
255
15
23
255
15
23
255
15
23
255
15
28
28
28
0
0
0
0
0
0
0
0
0
0
0
0
0
0
0
0
0
0
0
0
0
23
255
15
23
255
15
23
255
15
23
255
15
170
170
170
0
0
0
0
0
0
0
0
0
0
0
0
113
113
113
170
170
170
170
170
170
170
170
170
170
170
170
0
0
0
0
0
0
0
0
0
0
0
0
0
0
0
0
0
0
0
0
0
0
0
0
23
255
15
23
255
15
23
255
15
23
255
15
170
170
170
0
0
0
0
0
0
0
0
0
0
0
0
0
0
0
0
0
0
0
0
0
0
0
0
0
0
0
0
0
0
0
0
0
0
0
0
0
0
0
0
0
0
0
0
0
0
0
0
113
113
113
23
255
15
23
255
15
23
255
15
23
255
15
113
113
113
0
0
0
0
0
0
0
0
0
0
0
0
0
0
0
0
0
0
0
0
0
0
0
0
0
0
0
0
0
0
0
0
0
0
0
0
0
0
0
0
0
0
0
0
0
0
0
0
226
226
226
23
255
15
23
255
15
23
255
15
23
255
15
56
56
56
0
0
0
0
0
0
0
0
0
0
0
0
0
0
0
0
0
0
0
0
0
0
0
0
0
0
0
0
0
0
0
0
0
0
0
0
0
0
0
0
0
0
0
0
0
170
170
170
23
255
15
23
255
15
23
255
15
23
255
15
198
198
198
0
0
0
0
0
0
0
0
0
0
0
0
0
0
0
0
0
0
0
0
0
0
0
0
0
0
0
0
0
0
0
0
0
0
0
0
0
0
0
0
0
0
0
0
0
170
170
170
23
255
15
23
255
15
23
255
15
23
255
15
23
255
15
56
56
56
0
0
0
0
0
0
0
0
0
0
0
0
0
0
0
0
0
0
0
0
0
0
0
0
0
0
0
0
0
0
0
0
0
0
0
0
0
0
0
0
0
0
170
170
170
23
255
15
23
255
15
23
255
15
23
255
15
23
255
15
141
141
141
0
0
0
0
0
0
0
0
0
0
0
0
0
0
0
0
0
0
0
0
0
0
0
0
0
0
0
0
0
0
0
0
0
0
0
0
0
0
0
0
0
0
170
170
170
23
255
15
23
255
15
23
255
15
23
255
15
23
255
15
170
170
170
0
0
0
0
0
0
0
0
0
0
0
0
0
0
0
0
0
0
0
0
0
0
0
0
0
0
0
0
0
0
0
0
0
0
0
0
0
0
0
28
28
28
226
226
226
23
255
15
23
255
15
23
255
15
23
255
15
23
255
15
170
170
170
0
0
0
0
0
0
0
0
0
0
0
0
0
0
0
0
0
0
0
0
0
0
0
0
0
0
0
0
0
0
0
0
0
0
0
0
0
0
0
28
28
28
226
226
226
23
255
15
23
255
15
23
255
15
23
255
15
23
255
15
170
170
170
0
0
0
0
0
0
0
0
0
0
0
0
0
0
0
0
0
0
0
0
0
0
0
0
0
0
0
0
0
0
0
0
0
0
0
0
0
0
0
28
28
28
226
226
226
23
255
15
23
255
15
23
255
15
23
255
15
23
255
15
113
113
113
0
0
0
0
0
0
0
0
0
0
0
0
0
0
0
0
0
0
0
0
0
0
0
0
0
0
0
0
0
0
0
0
0
0
0
0
0
0
0
28
28
28
226
226
226
23
255
15
23
255
15
23
255
15
23
255
15
23
255
15
85
85
85
0
0
0
0
0
0
0
0
0
0
0
0
0
0
0
0
0
0
0
0
0
0
0
0
0
0
0
0
0
0
0
0
0
0
0
0
0
0
0
85
85
85
23
255
15
23
255
15
23
255
15
23
255
15
23
255
15
23
255
15
85
85
85
0
0
0
0
0
0
0
0
0
0
0
0
0
0
0
0
0
0
0
0
0
0
0
0
0
0
0
0
0
0
0
0
0
0
0
0
0
0
0
85
85
85
23
255
15
23
255
15
23
255
15
23
255
15
23
255
15
226
226
226
56
56
56
0
0
0
0
0
0
0
0
0
0
0
0
0
0
0
0
0
0
0
0
0
0
0
0
0
0
0
0
0
0
0
0
0
0
0
0
0
0
0
85
85
85
23
255
15
23
255
15
23
255
15
23
255
15
23
255
15
23
255
15
198
198
198
170
170
170
170
170
170
170
170
170
170
170
170
170
170
170
170
170
170
170
170
170
170
170
170
170
170
170
113
113
113
0
0
0
0
0
0
0
0
0
0
0
0
170
170
170
23
255
15
23
255
15
23
255
15
23
255
15
23
255
15
23
255
15
23
255
15
23
255
15
23
255
15
23
255
15
23
255
15
23
255
15
23
255
15
23
255
15
23
255
15
23
255
15
170
170
170
0
0
0
0
0
0
0
0
0
0
0
0
170
170
170
23
255
15
23
255
15
23
255
15
23
255
15
23
255
15
23
255
15
23
255
15
23
255
15
23
255
15
23
255
15
23
255
15
23
255
15
23
255
15
23
255
15
23
255
15
23
255
15
170
170
170
0
0
0
0
0
0
0
0
0
0
0
0
170
170
170
23
255
15
23
255
15
23
255
15
23
255
15
23
255
15
23
255
15
23
255
15
23
255
15
23
255
15
23
255
15
23
255
15
23
255
15
23
255
15
23
255
15
23
255
15
23
255
15
170
170
170
0
0
0
0
0
0
0
0
0
0
0
0
170
170
170
23
255
15
23
255
15
23
255
15
23
255
15
23
255
15
23
255
15
23
255
15
23
255
15
23
255
15
23
255
15
23
255
15
23
255
15
23
255
15
23
255
15
23
255
15
23
255
15
170
170
170
0
0
0
0
0
0
0
0
0
0
0
0
0
0
0
0
0
0
0
0
0
0
0
0
0
0
0
0
0
0
0
0
0
0
0
0
0
0
0
0
0
0
0
0
0
0
0
0
0
0
0
0
0
0
0
0
0
0
0
0
0
0
0
0
0
0
0
0
0
0
0
0
0
0
0
0
0
0
0
0
0
0
0
0
0
0
0
0
0
0
0
0
0
0
0
0
0
0
0
0
0
0
0
0
0
0
0
0
0
0
0
0
0
0
0
0
0
0
0
0
0
0
0
0
0
0
0
0
0
0
0
0
0
0
0
0
0
0
0
0
0
0
0
0
0
0
0
0
0
0
0
0
0
0
0
0
0
0
0
0
0
0
0
0
0
0
0
0
0
0
0
0
0
0
0
0
0
0
0
0
0
0
0
0
0
0
0
0
0
0
0
0
0
0
0
0
0
0
0
0
0
0
0
0
0
0
0
0
0
0
0
0
0
0
0
0
0
0
0
0
0
0
0
0
0
0
0
0
0
0
0
0
0
0
0
0
0
0
0
0
0
0
0
0
0
0
0
0
0
0
0
0
0
0
0
0
0
0
0
0
0
0
0
0
0
0
0
0
0
0
0
0
0
0
0
0
0
0
0
0
0
0
0
0
0
0
0
0
0
0
0
0
0
0
0
0
0
0
0
0
0
0
0
0
0
0
0
0
0
0
0
0
0
0
0
0
0
0
0
0
0
0
0
0
0
0
0
0
0
0
0
0
0
0
0
0
0
0
0
0
0
0
0
0
0
0
0
0
0
0
0
0
0
0
0
0
0
0
0
0
0
0
0
0
0
0
0
0
0
0
0
0
0
0
0
0
0
0
0
0
0
0
0
0
0
0
0
0
0
0
0
0
0
0
0
0
0
0
0
0
0
0
0
0
0
0
0
0
0
0
0
0
0
0
0
0
0
0
0
0
0
0
0
0
0
0
0
0
0
0
0
0
0
0
0
0
0
0
0
0
0
0
0
0
0
0
0
0
0
0
0
0
0
0
0
0
0
0
0
0
0
0
0
0
0
0
0
0
0
0
0
0
0
0
0
0
0
0
0
0
0
0
0
0
0
0
0
0
0
0
0
0
0
0
0
0
0
0
0
0
0
0
0
0
0
0
0
0
0
0
0
0
0
0
0
0
0
0
0
0
0
0
0
0
0
0
0
0
0
0
0
0
0
0
0
0
0
0
0
0
0
0
0
0
0
0
0
0
0
0
0
0
0
0
0
0
0
0
0
0
0
0
0
0
0
0
0
0
0
0
0
0
0
0
0
0
0
0
0
0
0
0
0
0
0
0
0
0
0
0
0
0
0
0
0
0
0
