P3
# CREATOR: XV Version 3.10a  Rev: 12/29/94
24 7
255
  0   0 255   0   0 255   0   0 255   0   0 255   0   0 255   0   0 255   0   0 255   0   0 255   0   0 255   0   0 255  0   0 255   0   0 255   0   0 255   0   0 255   0   0 255 0   0 255   0   0 255   0   0 255   0   0 255   0   0 255  0   0 255   0   0 255   0   0 255   0   0 255 
	0   0 255 200 200   0 200 200   0 200 200   0 200 200   0   0   0 255   0   0 255 255   0   0 255   0   0 255   0   0 255   0   0   0   0 255   0   0 255   0 255   0   0 255   0   0 255   0   0 255   0   0   0 255   0   0 255 255 255 255 255 255 255 255 255 255 255 255 255   0   0 255   
	0   0 255 200 200   0 
  0   0 255   0   0 255   0   0 255   0   0 255   0   0 255 
255   0   0   0   0 255   0   0 255   0   0 255   0   0 255 
  0   0 255   0 255   0   0   0 255   0   0 255   0   0 255 
  0   0 255   0   0 255 255 255 255   0   0 255   0   0 255 
255 255 255   0   0 255   0   0 255 200 200   0 200 200   0 
200 200   0   0   0 255   0   0 255   0   0 255 255   0   0 
255   0   0 255   0   0   0   0 255   0   0 255   0   0 255 
  0 255   0   0 255   0   0 255   0   0   0 255   0   0 255 
  0   0 255 255 255 255 255 255 255 255 255 255 255 255 255 
  0   0 255   0   0 255 200 200   0   0   0 255   0   0 255 
  0   0 255   0   0 255   0   0 255 255   0   0   0   0 255 
  0   0 255   0   0 255   0   0 255   0   0 255   0 255   0 
  0   0 255   0   0 255   0   0 255   0   0 255   0   0 255 
255 255 255   0   0 255   0   0 255   0   0 255   0   0 255 
  0   0 255 200 200   0   0   0 255   0   0 255   0   0 255 
  0   0 255   0   0 255 255   0   0 255   0   0 255   0   0 
255   0   0   0   0 255   0   0 255   0 255   0   0 255   0 
  0 255   0   0 255   0   0   0 255   0   0 255 255 255 255 
  0   0 255   0   0 255   0   0 255   0   0 255   0   0 255 
  0   0 255   0   0 255   0   0 255   0   0 255   0   0 255 
  0   0 255   0   0 255   0   0 255   0   0 255   0   0 255 
  0   0 255   0   0 255   0   0 255   0   0 255   0   0 255 
  0   0 255   0   0 255   0   0 255   0   0 255   0   0 255 
  0   0 255   0   0 255   0   0 255 
